#Inception phase 11
import midi


def midi_gen():
    hh_midi = midi.Pattern(tracks=[[midi.TimeSignatureEvent(tick=0, data=[4, 2, 24, 8]),    midi.KeySignatureEvent(tick=0, data=[0, 0]),
    midi.EndOfTrackEvent(tick=1, data=[])],
    [midi.ControlChangeEvent(tick=0, channel=0, data=[91, 58]),
    midi.ControlChangeEvent(tick=0, channel=0, data=[10, 69]),
    midi.ControlChangeEvent(tick=0, channel=0, data=[0, 0]),
    midi.ControlChangeEvent(tick=0, channel=0, data=[32, 0]),
    midi.ProgramChangeEvent(tick=0, channel=0, data=[0]),

#automatic composing
    midi.NoteOnEvent(tick=100, data = [48, 0]),
    midi.NoteOnEvent(tick=0, data = [60, 55]),
    midi.NoteOnEvent(tick=0, data = [64, 55]),
    midi.NoteOnEvent(tick=0, data = [67, 55]),
    midi.NoteOnEvent(tick=0, data = [70, 55]),
    midi.NoteOnEvent(tick=0, data = [72, 80]),
    midi.NoteOnEvent(tick=100, data = [79, 80]),
    midi.NoteOnEvent(tick=100, data = [52,0]),
    midi.NoteOnEvent(tick=0, data = [79, 0]),
    midi.NoteOnEvent(tick=100, data = [77, 80]),
    midi.NoteOnEvent(tick=100, data = [55, 0]),
    midi.NoteOnEvent(tick=0, data = [77, 0]),
    midi.NoteOnEvent(tick=100, data = [77, 0]),
    midi.NoteOnEvent(tick=100, data = [58, 0]),
    midi.NoteOnEvent(tick=0, data = [77, 0]),
    midi.NoteOnEvent(tick=100, data = [79, 80]),
# 4 beat
    midi.NoteOnEvent(tick=100, data = [60, 0]),
    midi.NoteOnEvent(tick=0, data = [60, 55]),
    midi.NoteOnEvent(tick=0, data = [64, 55]),
    midi.NoteOnEvent(tick=0, data = [67, 55]),
    midi.NoteOnEvent(tick=0, data = [70, 55]),
    midi.NoteOnEvent(tick=0, data = [82, 80]),
    midi.NoteOnEvent(tick=100, data = [72, 80]),
    midi.NoteOnEvent(tick=100, data = [58,0]),
    midi.NoteOnEvent(tick=0, data = [72, 80]),
    midi.NoteOnEvent(tick=100, data = [72, 0]),
    midi.NoteOnEvent(tick=0, data = [60, 65]),
    midi.NoteOnEvent(tick=0, data = [64, 65]),
    midi.NoteOnEvent(tick=0, data = [67, 65]),
    midi.NoteOnEvent(tick=0, data = [70, 65]),
    midi.NoteOnEvent(tick=100, data = [55, 0]),
    midi.NoteOnEvent(tick=0, data = [79, 80]),
    midi.NoteOnEvent(tick=100, data = [72, 80]),
    midi.NoteOnEvent(tick=100, data = [52, 0]),
    midi.NoteOnEvent(tick=0, data = [72, 0]),
    midi.NoteOnEvent(tick=100, data = [72, 0]),
# 4 beat
    midi.NoteOnEvent(tick=100, data = [48, 0]),
    midi.NoteOnEvent(tick=0, data = [60, 55]),
    midi.NoteOnEvent(tick=0, data = [64, 55]),
    midi.NoteOnEvent(tick=0, data = [67, 55]),
    midi.NoteOnEvent(tick=0, data = [70, 55]),
    midi.NoteOnEvent(tick=0, data = [75, 80]),
    midi.NoteOnEvent(tick=100, data = [75, 0]),
    midi.NoteOnEvent(tick=100, data = [52,0]),
    midi.NoteOnEvent(tick=0, data = [79, 80]),
    midi.NoteOnEvent(tick=100, data = [78, 80]),
    midi.NoteOnEvent(tick=0, data = [60, 65]),
    midi.NoteOnEvent(tick=0, data = [64, 65]),
    midi.NoteOnEvent(tick=0, data = [67, 65]),
    midi.NoteOnEvent(tick=0, data = [70, 65]),
    midi.NoteOnEvent(tick=100, data = [55, 0]),
    midi.NoteOnEvent(tick=0, data = [77, 80]),
    midi.NoteOnEvent(tick=100, data = [77, 80]),
    midi.NoteOnEvent(tick=100, data = [58, 0]),
    midi.NoteOnEvent(tick=0, data = [77, 0]),
    midi.NoteOnEvent(tick=100, data = [79, 80]),
# 4 beat
    midi.NoteOnEvent(tick=100, data = [60, 0]),
    midi.NoteOnEvent(tick=0, data = [60, 55]),
    midi.NoteOnEvent(tick=0, data = [64, 55]),
    midi.NoteOnEvent(tick=0, data = [67, 55]),
    midi.NoteOnEvent(tick=0, data = [70, 55]),
    midi.NoteOnEvent(tick=0, data = [72, 80]),
    midi.NoteOnEvent(tick=100, data = [72, 0]),
    midi.NoteOnEvent(tick=100, data = [58,0]),
    midi.NoteOnEvent(tick=0, data = [72, 0]),
    midi.NoteOnEvent(tick=100, data = [75, 80]),
    midi.NoteOnEvent(tick=0, data = [60, 65]),
    midi.NoteOnEvent(tick=0, data = [64, 65]),
    midi.NoteOnEvent(tick=0, data = [67, 65]),
    midi.NoteOnEvent(tick=0, data = [70, 65]),
    midi.NoteOnEvent(tick=100, data = [55, 0]),
    midi.NoteOnEvent(tick=0, data = [72, 80]),
    midi.NoteOnEvent(tick=100, data = [77, 80]),
    midi.NoteOnEvent(tick=100, data = [52, 0]),
    midi.NoteOnEvent(tick=0, data = [72, 80]),
    midi.NoteOnEvent(tick=100, data = [72, 0]),
# 4 beat
    midi.NoteOnEvent(tick=100, data = [41, 0]),
    midi.NoteOnEvent(tick=0, data = [53, 55]),
    midi.NoteOnEvent(tick=0, data = [57, 55]),
    midi.NoteOnEvent(tick=0, data = [60, 55]),
    midi.NoteOnEvent(tick=0, data = [63, 55]),
    midi.NoteOnEvent(tick=0, data = [77, 80]),
    midi.NoteOnEvent(tick=100, data = [77, 0]),
    midi.NoteOnEvent(tick=100, data = [45,0]),
    midi.NoteOnEvent(tick=0, data = [77, 80]),
    midi.NoteOnEvent(tick=100, data = [77, 0]),
    midi.NoteOnEvent(tick=0, data = [53, 65]),
    midi.NoteOnEvent(tick=0, data = [57, 65]),
    midi.NoteOnEvent(tick=0, data = [60, 65]),
    midi.NoteOnEvent(tick=0, data = [63, 65]),
    midi.NoteOnEvent(tick=100, data = [48, 0]),
    midi.NoteOnEvent(tick=0, data = [77, 80]),
    midi.NoteOnEvent(tick=100, data = [77, 0]),
    midi.NoteOnEvent(tick=100, data = [51, 0]),
    midi.NoteOnEvent(tick=0, data = [77, 0]),
    midi.NoteOnEvent(tick=100, data = [72, 80]),
# 4 beat
    midi.NoteOnEvent(tick=100, data = [53, 0]),
    midi.NoteOnEvent(tick=0, data = [53, 55]),
    midi.NoteOnEvent(tick=0, data = [57, 55]),
    midi.NoteOnEvent(tick=0, data = [60, 55]),
    midi.NoteOnEvent(tick=0, data = [63, 55]),
    midi.NoteOnEvent(tick=0, data = [75, 80]),
    midi.NoteOnEvent(tick=100, data = [75, 0]),
    midi.NoteOnEvent(tick=100, data = [51,0]),
    midi.NoteOnEvent(tick=0, data = [78, 80]),
    midi.NoteOnEvent(tick=100, data = [78, 0]),
    midi.NoteOnEvent(tick=0, data = [53, 65]),
    midi.NoteOnEvent(tick=0, data = [57, 65]),
    midi.NoteOnEvent(tick=0, data = [60, 65]),
    midi.NoteOnEvent(tick=0, data = [63, 65]),
    midi.NoteOnEvent(tick=100, data = [48, 0]),
    midi.NoteOnEvent(tick=0, data = [78, 0]),
    midi.NoteOnEvent(tick=100, data = [78, 0]),
    midi.NoteOnEvent(tick=100, data = [45, 0]),
    midi.NoteOnEvent(tick=0, data = [78, 0]),
    midi.NoteOnEvent(tick=100, data = [79, 80]),
# 4 beat
    midi.NoteOnEvent(tick=100, data = [48, 0]),
    midi.NoteOnEvent(tick=0, data = [60, 55]),
    midi.NoteOnEvent(tick=0, data = [64, 55]),
    midi.NoteOnEvent(tick=0, data = [67, 55]),
    midi.NoteOnEvent(tick=0, data = [70, 55]),
    midi.NoteOnEvent(tick=0, data = [77, 80]),
    midi.NoteOnEvent(tick=100, data = [77, 0]),
    midi.NoteOnEvent(tick=100, data = [52,0]),
    midi.NoteOnEvent(tick=0, data = [75, 80]),
    midi.NoteOnEvent(tick=100, data = [75, 0]),
    midi.NoteOnEvent(tick=100, data = [55, 0]),
    midi.NoteOnEvent(tick=0, data = [82, 80]),
    midi.NoteOnEvent(tick=100, data = [82, 0]),
    midi.NoteOnEvent(tick=100, data = [58, 0]),
    midi.NoteOnEvent(tick=0, data = [75, 80]),
    midi.NoteOnEvent(tick=100, data = [75, 0]),
# 4 beat
    midi.NoteOnEvent(tick=100, data = [60, 0]),
    midi.NoteOnEvent(tick=0, data = [60, 55]),
    midi.NoteOnEvent(tick=0, data = [64, 55]),
    midi.NoteOnEvent(tick=0, data = [67, 55]),
    midi.NoteOnEvent(tick=0, data = [70, 55]),
    midi.NoteOnEvent(tick=0, data = [75, 80]),
    midi.NoteOnEvent(tick=100, data = [78, 80]),
    midi.NoteOnEvent(tick=100, data = [58,0]),
    midi.NoteOnEvent(tick=0, data = [78, 0]),
    midi.NoteOnEvent(tick=100, data = [79, 80]),
    midi.NoteOnEvent(tick=0, data = [60, 65]),
    midi.NoteOnEvent(tick=0, data = [64, 65]),
    midi.NoteOnEvent(tick=0, data = [67, 65]),
    midi.NoteOnEvent(tick=0, data = [70, 65]),
    midi.NoteOnEvent(tick=100, data = [55, 0]),
    midi.NoteOnEvent(tick=0, data = [79, 0]),
    midi.NoteOnEvent(tick=100, data = [79, 0]),
    midi.NoteOnEvent(tick=100, data = [52, 0]),
    midi.NoteOnEvent(tick=0, data = [79, 0]),
    midi.NoteOnEvent(tick=100, data = [75, 80]),
# 4 beat
    midi.NoteOnEvent(tick=100, data = [43, 0]),
    midi.NoteOnEvent(tick=0, data = [55, 55]),
    midi.NoteOnEvent(tick=0, data = [59, 55]),
    midi.NoteOnEvent(tick=0, data = [62, 55]),
    midi.NoteOnEvent(tick=0, data = [65, 55]),
    midi.NoteOnEvent(tick=0, data = [77, 80]),
    midi.NoteOnEvent(tick=100, data = [75, 80]),
    midi.NoteOnEvent(tick=100, data = [47,0]),
    midi.NoteOnEvent(tick=0, data = [75, 0]),
    midi.NoteOnEvent(tick=100, data = [75, 80]),
    midi.NoteOnEvent(tick=100, data = [50, 0]),
    midi.NoteOnEvent(tick=0, data = [82, 80]),
    midi.NoteOnEvent(tick=100, data = [72, 80]),
    midi.NoteOnEvent(tick=100, data = [53, 0]),
    midi.NoteOnEvent(tick=0, data = [70, 80]),
    midi.NoteOnEvent(tick=100, data = [70, 0]),
# 4 beat
    midi.NoteOnEvent(tick=100, data = [55, 0]),
    midi.NoteOnEvent(tick=0, data = [55, 55]),
    midi.NoteOnEvent(tick=0, data = [59, 55]),
    midi.NoteOnEvent(tick=0, data = [62, 55]),
    midi.NoteOnEvent(tick=0, data = [65, 55]),
    midi.NoteOnEvent(tick=0, data = [79, 80]),
    midi.NoteOnEvent(tick=100, data = [75, 80]),
    midi.NoteOnEvent(tick=100, data = [53,0]),
    midi.NoteOnEvent(tick=0, data = [77, 80]),
    midi.NoteOnEvent(tick=100, data = [77, 0]),
    midi.NoteOnEvent(tick=0, data = [55, 65]),
    midi.NoteOnEvent(tick=0, data = [59, 65]),
    midi.NoteOnEvent(tick=0, data = [62, 65]),
    midi.NoteOnEvent(tick=0, data = [65, 65]),
    midi.NoteOnEvent(tick=100, data = [50, 0]),
    midi.NoteOnEvent(tick=0, data = [79, 80]),
    midi.NoteOnEvent(tick=100, data = [77, 80]),
    midi.NoteOnEvent(tick=100, data = [47, 0]),
    midi.NoteOnEvent(tick=0, data = [82, 80]),
    midi.NoteOnEvent(tick=100, data = [82, 0]),
# 4 beat
    midi.NoteOnEvent(tick=100, data = [48, 0]),
    midi.NoteOnEvent(tick=0, data = [60, 55]),
    midi.NoteOnEvent(tick=0, data = [64, 55]),
    midi.NoteOnEvent(tick=0, data = [67, 55]),
    midi.NoteOnEvent(tick=0, data = [70, 55]),
    midi.NoteOnEvent(tick=0, data = [82, 80]),
    midi.NoteOnEvent(tick=100, data = [82, 0]),
    midi.NoteOnEvent(tick=100, data = [52,0]),
    midi.NoteOnEvent(tick=0, data = [72, 80]),
    midi.NoteOnEvent(tick=100, data = [72, 80]),
    midi.NoteOnEvent(tick=0, data = [60, 65]),
    midi.NoteOnEvent(tick=0, data = [64, 65]),
    midi.NoteOnEvent(tick=0, data = [67, 65]),
    midi.NoteOnEvent(tick=0, data = [70, 65]),
    midi.NoteOnEvent(tick=100, data = [55, 0]),
    midi.NoteOnEvent(tick=0, data = [76, 80]),
    midi.NoteOnEvent(tick=100, data = [72, 80]),
    midi.NoteOnEvent(tick=100, data = [58, 0]),
    midi.NoteOnEvent(tick=0, data = [72, 0]),
    midi.NoteOnEvent(tick=100, data = [72, 0]),
# 4 beat
    midi.NoteOnEvent(tick=100, data = [60, 0]),
    midi.NoteOnEvent(tick=0, data = [60, 55]),
    midi.NoteOnEvent(tick=0, data = [64, 55]),
    midi.NoteOnEvent(tick=0, data = [67, 55]),
    midi.NoteOnEvent(tick=0, data = [70, 55]),
    midi.NoteOnEvent(tick=0, data = [70, 80]),
    midi.NoteOnEvent(tick=100, data = [70, 0]),
    midi.NoteOnEvent(tick=100, data = [58,0]),
    midi.NoteOnEvent(tick=0, data = [63, 80]),
    midi.NoteOnEvent(tick=100, data = [63, 0]),
    midi.NoteOnEvent(tick=0, data = [60, 65]),
    midi.NoteOnEvent(tick=0, data = [64, 65]),
    midi.NoteOnEvent(tick=0, data = [67, 65]),
    midi.NoteOnEvent(tick=0, data = [70, 65]),
    midi.NoteOnEvent(tick=100, data = [55, 0]),
    midi.NoteOnEvent(tick=0, data = [63, 0]),
    midi.NoteOnEvent(tick=100, data = [63, 80]),
    midi.NoteOnEvent(tick=100, data = [52, 0]),
    midi.NoteOnEvent(tick=0, data = [63, 0]),
    midi.NoteOnEvent(tick=100, data = [60, 80]),
# 4 beat
    midi.EndOfTrackEvent(tick=1, data=[])],


#Bass line
    [midi.ControlChangeEvent(tick=0, channel=0, data=[91, 58]),
    midi.ControlChangeEvent(tick=0, channel=0, data=[10, 69]),
    midi.ControlChangeEvent(tick=0, channel=0, data=[0, 0]),
    midi.ControlChangeEvent(tick=0, channel=0, data=[32, 0]),
    midi.ProgramChangeEvent(tick=0, channel=1, data=[33]),

    midi.NoteOnEvent(tick=100, data = [48, 100]),
    midi.NoteOnEvent(tick=100, data = [55, 0]),
    midi.NoteOnEvent(tick=100, data = [52,100]),
    midi.NoteOnEvent(tick=100, data = [58,0]),
    midi.NoteOnEvent(tick=100, data = [55, 100]),
    midi.NoteOnEvent(tick=100, data = [52, 0]),
    midi.NoteOnEvent(tick=100, data = [58, 100]),
    midi.NoteOnEvent(tick=100, data = [52, 0]),
    midi.NoteOnEvent(tick=100, data = [60, 100]),
    midi.NoteOnEvent(tick=100, data = [55, 0]),
    midi.NoteOnEvent(tick=100, data = [58,100]),
    midi.NoteOnEvent(tick=100, data = [52,0]),
    midi.NoteOnEvent(tick=100, data = [55, 100]),
    midi.NoteOnEvent(tick=100, data = [58, 0]),
    midi.NoteOnEvent(tick=100, data = [52, 100]),
    midi.NoteOnEvent(tick=100, data = [58, 0]),
    midi.NoteOnEvent(tick=100, data = [48, 100]),
    midi.NoteOnEvent(tick=100, data = [55, 0]),
    midi.NoteOnEvent(tick=100, data = [52,100]),
    midi.NoteOnEvent(tick=100, data = [58,0]),
    midi.NoteOnEvent(tick=100, data = [55, 100]),
    midi.NoteOnEvent(tick=100, data = [52, 0]),
    midi.NoteOnEvent(tick=100, data = [58, 100]),
    midi.NoteOnEvent(tick=100, data = [52, 0]),
    midi.NoteOnEvent(tick=100, data = [60, 100]),
    midi.NoteOnEvent(tick=100, data = [55, 0]),
    midi.NoteOnEvent(tick=100, data = [58,100]),
    midi.NoteOnEvent(tick=100, data = [52,0]),
    midi.NoteOnEvent(tick=100, data = [55, 100]),
    midi.NoteOnEvent(tick=100, data = [58, 0]),
    midi.NoteOnEvent(tick=100, data = [52, 100]),
    midi.NoteOnEvent(tick=100, data = [58, 0]),
    midi.NoteOnEvent(tick=100, data = [41, 100]),
    midi.NoteOnEvent(tick=100, data = [48, 0]),
    midi.NoteOnEvent(tick=100, data = [45,100]),
    midi.NoteOnEvent(tick=100, data = [51,0]),
    midi.NoteOnEvent(tick=100, data = [48, 100]),
    midi.NoteOnEvent(tick=100, data = [45, 0]),
    midi.NoteOnEvent(tick=100, data = [51, 100]),
    midi.NoteOnEvent(tick=100, data = [45, 0]),
    midi.NoteOnEvent(tick=100, data = [53, 100]),
    midi.NoteOnEvent(tick=100, data = [48, 0]),
    midi.NoteOnEvent(tick=100, data = [51,100]),
    midi.NoteOnEvent(tick=100, data = [45,0]),
    midi.NoteOnEvent(tick=100, data = [48, 100]),
    midi.NoteOnEvent(tick=100, data = [51, 0]),
    midi.NoteOnEvent(tick=100, data = [45, 100]),
    midi.NoteOnEvent(tick=100, data = [51, 0]),
    midi.NoteOnEvent(tick=100, data = [48, 100]),
    midi.NoteOnEvent(tick=100, data = [55, 0]),
    midi.NoteOnEvent(tick=100, data = [52,100]),
    midi.NoteOnEvent(tick=100, data = [58,0]),
    midi.NoteOnEvent(tick=100, data = [55, 100]),
    midi.NoteOnEvent(tick=100, data = [52, 0]),
    midi.NoteOnEvent(tick=100, data = [58, 100]),
    midi.NoteOnEvent(tick=100, data = [52, 0]),
    midi.NoteOnEvent(tick=100, data = [60, 100]),
    midi.NoteOnEvent(tick=100, data = [55, 0]),
    midi.NoteOnEvent(tick=100, data = [58,100]),
    midi.NoteOnEvent(tick=100, data = [52,0]),
    midi.NoteOnEvent(tick=100, data = [55, 100]),
    midi.NoteOnEvent(tick=100, data = [58, 0]),
    midi.NoteOnEvent(tick=100, data = [52, 100]),
    midi.NoteOnEvent(tick=100, data = [58, 0]),
    midi.NoteOnEvent(tick=100, data = [43, 100]),
    midi.NoteOnEvent(tick=100, data = [50, 0]),
    midi.NoteOnEvent(tick=100, data = [47,100]),
    midi.NoteOnEvent(tick=100, data = [53,0]),
    midi.NoteOnEvent(tick=100, data = [50, 100]),
    midi.NoteOnEvent(tick=100, data = [47, 0]),
    midi.NoteOnEvent(tick=100, data = [53, 100]),
    midi.NoteOnEvent(tick=100, data = [47, 0]),
    midi.NoteOnEvent(tick=100, data = [55, 100]),
    midi.NoteOnEvent(tick=100, data = [50, 0]),
    midi.NoteOnEvent(tick=100, data = [53,100]),
    midi.NoteOnEvent(tick=100, data = [47,0]),
    midi.NoteOnEvent(tick=100, data = [50, 100]),
    midi.NoteOnEvent(tick=100, data = [53, 0]),
    midi.NoteOnEvent(tick=100, data = [47, 100]),
    midi.NoteOnEvent(tick=100, data = [53, 0]),
    midi.NoteOnEvent(tick=100, data = [48, 100]),
    midi.NoteOnEvent(tick=100, data = [55, 0]),
    midi.NoteOnEvent(tick=100, data = [52,100]),
    midi.NoteOnEvent(tick=100, data = [58,0]),
    midi.NoteOnEvent(tick=100, data = [55, 100]),
    midi.NoteOnEvent(tick=100, data = [52, 0]),
    midi.NoteOnEvent(tick=100, data = [58, 100]),
    midi.NoteOnEvent(tick=100, data = [52, 0]),
    midi.NoteOnEvent(tick=100, data = [60, 100]),
    midi.NoteOnEvent(tick=100, data = [55, 0]),
    midi.NoteOnEvent(tick=100, data = [58,100]),
    midi.NoteOnEvent(tick=100, data = [52,0]),
    midi.NoteOnEvent(tick=100, data = [55, 100]),
    midi.NoteOnEvent(tick=100, data = [58, 0]),
    midi.NoteOnEvent(tick=100, data = [52, 100]),
    midi.NoteOnEvent(tick=100, data = [58, 0]),
#end automatic composing

    midi.EndOfTrackEvent(tick=1, data=[])]])


    midi.write_midifile("inception_phase_11_blue_0.mid", hh_midi)